<svg width="83" height="70" viewBox="0 0 83 70" fill="none" xmlns="http://www.w3.org/2000/svg">
<path d="M19.9353 0.741386C20.1724 0.741386 20.4096 0.77104 20.6468 0.859983C21.6845 1.2454 22.2181 2.4313 21.8327 3.46896C21.7437 3.73579 21.5659 3.97297 21.388 4.18051L29.4817 12.7486L32.4168 7.08596C31.735 6.67089 31.4088 5.84077 31.7053 5.06993C31.9721 4.41769 32.5947 4.00261 33.247 4.00261C33.4545 4.00261 33.6324 4.03227 33.8399 4.12121C34.6997 4.44733 35.1148 5.39605 34.7886 6.25583C34.6701 6.58195 34.4329 6.84877 34.1661 7.02666L40.1252 15.0018L50.7094 7.85678C50.3536 7.32313 50.235 6.64124 50.5018 5.989C50.7983 5.18851 51.5691 4.68452 52.3993 4.68452C52.6364 4.68452 52.8736 4.71416 53.1108 4.83275C54.1485 5.21817 54.6821 6.40407 54.2967 7.44173C54.0595 8.09398 53.5259 8.53869 52.9033 8.68693L56.0459 21.0796L65.7999 19.0932C65.711 18.7671 65.7406 18.441 65.8592 18.1148C66.126 17.4626 66.7486 17.0475 67.4009 17.0475C67.6084 17.0475 67.7863 17.0772 67.9938 17.1661C68.8536 17.4922 69.2687 18.441 68.9426 19.3007C68.6757 19.953 68.0531 20.368 67.4009 20.368C67.2823 20.368 67.1934 20.368 67.0748 20.3384L65.4738 26.5051L77.2142 25.4674C77.2142 25.2006 77.2439 24.9041 77.3328 24.6373C77.6293 23.8368 78.4001 23.3328 79.2302 23.3328C79.4674 23.3328 79.7046 23.3624 79.9418 23.4514C80.9794 23.8368 81.5131 25.0227 81.1277 26.0604C80.8312 26.8608 80.0604 27.3649 79.2302 27.3649C78.9931 27.3649 78.7559 27.3352 78.5187 27.2166C78.3112 27.1277 78.1036 27.0091 77.9554 26.8608L63.102 45.0348C63.4578 45.2126 63.7246 45.5684 63.7839 45.9835C63.9025 46.7247 63.3985 47.4066 62.6869 47.5252C62.2126 47.6141 61.7382 47.6734 61.2639 47.7327L60.9674 48.5332L59.1292 53.3361C59.1589 53.3361 59.2182 53.3361 59.2478 53.3361C59.9001 53.3361 60.4634 53.8104 60.582 54.4627C60.7006 55.2038 60.1965 55.8857 59.485 56.0043C56.9057 56.4194 54.3263 56.6269 51.7767 56.6269C45.8768 56.6269 40.0659 55.53 34.6108 53.4546C26.8135 50.4899 19.787 45.4795 14.3615 38.8088C13.8872 38.2455 13.9761 37.3857 14.5691 36.9113C14.8062 36.7038 15.1027 36.6149 15.3992 36.6149C15.7549 36.6149 16.1107 36.7631 16.3776 37.0299L18.2157 32.227L18.5122 31.4265C18.2157 31.0708 17.8896 30.715 17.5931 30.3296C17.1187 29.7663 17.2077 28.9065 17.8006 28.4322C18.0378 28.2246 18.3343 28.1357 18.6308 28.1357C18.7494 28.1357 18.8383 28.1357 18.9569 28.1653L19.9353 4.77346C19.7277 4.77346 19.4905 4.7438 19.283 4.65486C18.2453 4.26944 17.7117 3.08355 18.0971 2.04588C18.3639 1.2454 19.1051 0.741386 19.9353 0.741386ZM19.9353 0.000198364C18.8087 0.000198364 17.771 0.711738 17.3559 1.77905C16.8223 3.20213 17.5338 4.80309 18.9569 5.33675C19.0162 5.36639 19.0755 5.3664 19.1348 5.39605L18.2157 27.4538C17.8896 27.5131 17.5635 27.6613 17.2966 27.8688C16.8519 28.2246 16.5851 28.7286 16.5258 29.2623C16.4665 29.8256 16.6147 30.3592 16.9705 30.7743C17.178 31.0411 17.4152 31.308 17.6227 31.5451L17.4745 31.9306L15.9625 35.933C15.7846 35.8737 15.5771 35.844 15.3695 35.844C14.8952 35.844 14.4505 36.0219 14.065 36.3184C13.1756 37.0299 13.0274 38.3641 13.7686 39.2535C19.1644 45.9242 26.2798 51.0532 34.3439 54.1365C39.9473 56.2712 45.7879 57.3385 51.747 57.3385C54.356 57.3385 56.9946 57.1309 59.5739 56.7159C60.7006 56.538 61.4714 55.4707 61.2935 54.3144C61.1749 53.6029 60.7302 53.0396 60.1373 52.7727L61.6493 48.7703L61.7975 48.3849C62.1236 48.3256 62.4794 48.296 62.8055 48.2367C63.3392 48.1477 63.8432 47.8513 64.1693 47.4066C64.4954 46.9618 64.614 46.3985 64.5251 45.8649C64.4658 45.5388 64.3176 45.2126 64.1397 44.9458L78.1333 27.8688C78.1926 27.8985 78.2519 27.9281 78.2815 27.9281C78.6077 28.0467 78.9338 28.106 79.2599 28.106C80.3865 28.106 81.4242 27.3945 81.8392 26.3272C82.1061 25.6453 82.0764 24.8745 81.7799 24.2222C81.4835 23.5403 80.9201 23.0363 80.2383 22.7695C79.9121 22.6509 79.586 22.5916 79.2599 22.5916C78.1333 22.5916 77.0956 23.3031 76.6806 24.3704C76.6213 24.489 76.5916 24.6373 76.562 24.7855L66.4818 25.6749L67.6677 21.0499C68.5572 20.961 69.3576 20.368 69.6838 19.5083C70.1581 18.2631 69.5355 16.8993 68.2903 16.4249C68.0235 16.3063 67.727 16.2767 67.4305 16.2767C66.4522 16.2767 65.5331 16.8993 65.1773 17.8184C65.0884 18.0259 65.0587 18.2631 65.0291 18.4706L56.5796 20.1902L53.763 9.10198C54.3263 8.77586 54.7414 8.3015 54.9786 7.67891C55.2454 6.99701 55.2158 6.22619 54.9193 5.57394C54.6228 4.9217 54.0595 4.38803 53.3776 4.12121C53.0515 4.00262 52.7254 3.94333 52.3993 3.94333C51.2727 3.94333 50.235 4.65487 49.8199 5.72218C49.5828 6.31513 49.5827 6.99702 49.7903 7.58997L40.3327 13.9938L35.1741 7.08596C35.3223 6.90807 35.4113 6.70054 35.5002 6.49301C35.7374 5.90006 35.7077 5.24781 35.4409 4.65486C35.1741 4.06191 34.6997 3.61719 34.1068 3.40966C33.8399 3.29107 33.5434 3.26142 33.247 3.26142C32.2686 3.26142 31.3495 3.88402 30.9938 4.8031C30.6676 5.66287 30.8752 6.61159 31.4681 7.26383L29.2742 11.4738L22.3367 4.09157C22.396 3.97298 22.4553 3.85437 22.5146 3.70614C23.0482 2.28306 22.3367 0.682091 20.9136 0.148436C20.6171 0.0594934 20.2614 0.000198364 19.9353 0.000198364Z" fill="#AD5E00"/>
<path d="M34.7887 6.25596C35.1148 5.39618 34.6998 4.44746 33.84 4.12134C32.9802 3.79521 32.0315 4.21028 31.7053 5.07006C31.4089 5.84089 31.735 6.70067 32.4169 7.08609L26.8432 17.8185L37.3087 26.7424L42.3488 17.9371L34.1957 7.02679C34.4329 6.8489 34.6701 6.58208 34.7887 6.25596Z" fill="#BE6D00"/>
<path d="M68.9428 19.2712C69.2689 18.4115 68.8538 17.4628 67.994 17.1366C67.1343 16.8105 66.1855 17.2256 65.8594 18.0853C65.7408 18.4115 65.7112 18.7673 65.8001 19.0637L52.4587 21.7913L50.3538 31.7232L64.1102 32.0197L67.1046 20.2793C67.8458 20.4572 68.6463 20.0421 68.9428 19.2712Z" fill="#BE6D00"/>
<path d="M61.5902 46.8731L79.2601 25.2898L57.5581 27.1872L52.3995 6.73043L34.9074 18.5598L19.9651 2.69838L18.8088 30.567L15.4587 39.3723L34.8481 52.7434L58.24 55.6785L61.5902 46.8731Z" fill="url(#paint0_linear_1_1891)"/>
<path opacity="0.1" d="M61.9459 45.6578C45.9066 48.2964 29.5709 42.0704 19.3425 29.4109C19.2239 29.2627 19.046 29.1145 18.8681 29.0552L18.8088 30.5672L18.1862 32.2275C23.4635 38.3645 30.1638 42.9895 37.5164 45.7764C44.8986 48.5929 52.9331 49.6009 60.9676 48.5336L61.5902 46.8733L62.5389 45.7171C62.361 45.6578 62.1535 45.6281 61.9459 45.6578Z" fill="black"/>
<path d="M37.8128 44.9758C30.0155 42.0111 22.9891 37.0006 17.5636 30.3299C17.0892 29.7666 17.1782 28.9069 17.7711 28.4325C18.3344 27.9581 19.1942 28.0471 19.6686 28.64C29.8969 41.2699 46.2327 47.4958 62.272 44.8869C63.0132 44.7683 63.6951 45.2723 63.8137 45.9838C63.9323 46.725 63.4283 47.4069 62.7167 47.5255C54.1782 48.9189 45.6101 47.9702 37.8128 44.9758Z" fill="url(#paint1_linear_1_1891)"/>
<path d="M34.5814 53.4545C26.7841 50.4898 19.7576 45.4794 14.3321 38.8087C13.8578 38.2454 13.9467 37.3856 14.5397 36.9112C15.103 36.4369 15.9627 36.5258 16.4371 37.1188C26.6655 49.7486 43.0012 55.9746 59.0405 53.3656C59.7817 53.247 60.4636 53.751 60.5822 54.4626C60.7008 55.2037 60.1968 55.8856 59.4853 56.0042C50.9468 57.368 42.3786 56.4193 34.5814 53.4545Z" fill="url(#paint2_linear_1_1891)"/>
<path d="M18.6012 28.1359C18.9867 28.1359 19.3721 28.3138 19.6389 28.6399C28.3256 39.3723 41.4002 45.4797 54.9491 45.4797C57.3802 45.4797 59.8112 45.2722 62.2423 44.8867C62.3016 44.8867 62.3906 44.8571 62.4499 44.8571C63.1021 44.8571 63.6654 45.3315 63.784 45.9837C63.9026 46.7249 63.3986 47.4068 62.6871 47.5254C60.1077 47.9404 57.5284 48.148 54.9787 48.148C49.0789 48.148 43.268 47.051 37.8128 44.9757C30.0155 42.0109 22.9891 37.0005 17.5636 30.3298C17.0892 29.7665 17.1782 28.9067 17.7711 28.4324C18.0083 28.2545 18.3048 28.1359 18.6012 28.1359ZM18.6012 27.3947C18.1269 27.3947 17.6525 27.5726 17.2967 27.8691C16.852 28.2248 16.5852 28.7288 16.5259 29.2625C16.4666 29.8258 16.6149 30.3595 16.9706 30.7745C22.3665 37.4452 29.4819 42.5742 37.546 45.6576C43.1494 47.7922 48.9899 48.8595 54.9491 48.8595C57.558 48.8595 60.1967 48.652 62.776 48.2369C63.9026 48.059 64.6734 46.9917 64.4956 45.8355C64.3177 44.8274 63.4579 44.0863 62.4499 44.0863C62.3313 44.0863 62.2127 44.0863 62.1238 44.1159C59.752 44.5013 57.3505 44.7089 54.9491 44.7089C41.4002 44.7089 28.711 38.6608 20.2022 28.1655C19.8168 27.6912 19.2238 27.3947 18.6012 27.3947Z" fill="#AD5E00"/>
<path d="M15.3696 36.6155C15.7551 36.6155 16.1405 36.7934 16.4073 37.1195C25.094 47.8519 38.1686 53.9593 51.7175 53.9593C54.1486 53.9593 56.5797 53.7518 59.0108 53.3663C59.0701 53.3663 59.159 53.3367 59.2183 53.3367C59.8705 53.3367 60.4338 53.8111 60.5524 54.4633C60.671 55.2045 60.167 55.8864 59.4555 56.005C56.8761 56.42 54.2968 56.6276 51.7471 56.6276C45.8473 56.6276 40.0364 55.5306 34.5812 53.4553C26.7839 50.4905 19.7575 45.4801 14.332 38.8094C13.8576 38.2461 13.9466 37.3863 14.5395 36.912C14.7767 36.7044 15.0732 36.6155 15.3696 36.6155ZM15.3696 35.8743C14.8953 35.8743 14.4209 36.0522 14.0651 36.3487C13.1757 37.0602 13.0275 38.3944 13.7687 39.2838C19.1645 45.9545 26.2799 51.0835 34.344 54.1668C39.9474 56.3014 45.788 57.3687 51.7471 57.3687C54.3561 57.3687 56.9947 57.1612 59.5741 56.7462C60.1077 56.6572 60.6117 56.3607 60.9379 55.916C61.264 55.4713 61.3826 54.908 61.2936 54.3744C61.1157 53.3663 60.256 52.6252 59.2479 52.6252C59.1294 52.6252 59.0108 52.6252 58.9218 52.6548C56.55 53.0402 54.1486 53.2478 51.7471 53.2478C38.1982 53.2478 25.5091 47.1997 17.0003 36.7045C16.5852 36.1412 15.9922 35.8743 15.3696 35.8743Z" fill="#AD5E00"/>
<path d="M54.2672 7.44164C53.8818 8.47931 52.6959 9.01296 51.6583 8.62754C50.6206 8.24213 50.0869 7.05623 50.4724 6.01857C50.8578 4.98091 52.0437 4.44725 53.0813 4.83267C54.1486 5.21809 54.6823 6.40398 54.2672 7.44164Z" fill="url(#paint3_linear_1_1891)"/>
<path d="M21.8327 3.4992C21.4473 4.53687 20.2614 5.07052 19.2238 4.6851C18.1861 4.29969 17.6524 3.11377 18.0379 2.07611C18.4233 1.03845 19.6092 0.504792 20.6468 0.890209C21.7141 1.27563 22.2182 2.43189 21.8327 3.4992Z" fill="url(#paint4_linear_1_1891)"/>
<path d="M81.1278 26.0904C80.7424 27.1281 79.5565 27.6617 78.5188 27.2763C77.4812 26.8909 76.9475 25.705 77.3329 24.6673C77.7183 23.6297 78.9042 23.096 79.9419 23.4814C80.9796 23.8668 81.5429 25.0527 81.1278 26.0904Z" fill="url(#paint5_linear_1_1891)"/>
<path opacity="0.3" d="M79.6454 24.2818C80.5645 24.6376 81.0685 25.5567 80.9203 26.4758C81.0092 26.3572 81.0685 26.2386 81.1278 26.0903C81.5132 25.0527 81.0092 23.8668 79.9419 23.4813C78.9042 23.0959 77.7183 23.5999 77.3329 24.6672C77.2736 24.8155 77.244 24.9341 77.2143 25.0823C77.748 24.2818 78.756 23.9261 79.6454 24.2818Z" fill="white"/>
<path opacity="0.3" d="M20.3504 1.69016C21.2695 2.04593 21.7735 2.96501 21.6253 3.88408C21.7142 3.76549 21.7735 3.6469 21.8328 3.49867C22.2182 2.461 21.7142 1.27509 20.6469 0.889672C19.6093 0.504255 18.4234 1.00826 18.0379 2.07557C17.9787 2.22381 17.949 2.34241 17.9193 2.49064C18.453 1.69016 19.4314 1.33439 20.3504 1.69016Z" fill="white"/>
<path opacity="0.3" d="M52.8145 5.6335C53.7336 5.98927 54.2376 6.90835 54.0893 7.82742C54.1783 7.70883 54.2376 7.59025 54.2969 7.44201C54.6823 6.40435 54.1783 5.21845 53.111 4.83303C52.0733 4.44761 50.8874 4.95162 50.502 6.01893C50.4427 6.16717 50.413 6.28575 50.3834 6.43399C50.8874 5.6335 51.8954 5.30738 52.8145 5.6335Z" fill="white"/>
<path d="M49.7311 11.9486L40.0363 37.3862C39.6806 38.3349 38.5836 38.8093 37.6349 38.3942C36.0339 37.7123 34.2254 36.7636 32.328 35.4294C30.5491 34.1842 29.1261 32.9094 27.9995 31.7532C27.4361 31.1602 27.1397 30.3597 27.1693 29.5296C27.4362 24.6081 27.7326 19.6866 27.9995 14.7355C30.3416 17.4334 32.7134 20.161 35.0556 22.8589C39.9474 19.2123 44.8392 15.5656 49.7311 11.9486Z" fill="url(#paint6_linear_1_1891)"/>
<path d="M26.3392 14.4685L24.7382 27.5431C24.7086 27.8396 24.3232 27.9285 24.1453 27.6913L23.2855 26.4461C23.0483 26.0903 22.9297 25.6456 22.989 25.2009L24.5307 12.5711L26.3392 14.4685Z" fill="url(#paint7_linear_1_1891)"/>
<path d="M25.4202 36.1408C25.6573 35.8739 26.0724 35.8443 26.3392 36.0815C26.695 36.4076 27.1101 36.7337 27.5251 37.0598C28.0291 37.4452 28.5331 37.8307 29.0371 38.1271C29.3336 38.3347 29.4226 38.7201 29.215 39.0166C29.0075 39.313 28.6221 39.402 28.3256 39.1944C27.9105 38.9276 27.4955 38.6312 27.0508 38.3347C26.4578 37.9196 25.9242 37.4749 25.4202 37.0598C25.1533 36.8226 25.1237 36.4076 25.3609 36.1408C25.3905 36.1704 25.4202 36.1408 25.4202 36.1408Z" fill="url(#paint8_linear_1_1891)"/>
<path d="M22.1886 44.6199C22.4258 44.3531 22.8408 44.3234 23.1076 44.5606C23.4634 44.8867 23.8785 45.2129 24.2935 45.539C24.7976 45.9244 25.3016 46.3098 25.8056 46.6063C26.1021 46.8138 26.191 47.1992 25.9835 47.4957C25.7759 47.7922 25.3905 47.8811 25.094 47.6736C24.679 47.4068 24.2639 47.1103 23.8192 46.8138C23.2262 46.3987 22.6926 45.954 22.1886 45.539C21.9218 45.3018 21.8921 44.8867 22.1293 44.6199C22.1589 44.6495 22.1886 44.6199 22.1886 44.6199Z" fill="url(#paint9_linear_1_1891)"/>
<path d="M9.82568 19.687L10.0036 21.9402C10.0332 22.3552 10.2704 22.7407 10.6262 22.9482L12.5829 24.1045C13.4723 24.6381 13.3834 25.9722 12.4347 26.3577L10.3297 27.2174C9.94427 27.3657 9.67744 27.7214 9.5885 28.1069L9.11415 30.3008C8.87697 31.3088 7.60212 31.6349 6.92023 30.8344L5.46749 29.1149C5.20066 28.7887 4.78561 28.6405 4.37055 28.6702L2.11733 28.8777C1.07967 28.9666 0.368125 27.84 0.931428 26.9506L2.11733 25.0235C2.32486 24.6677 2.3545 24.223 2.20627 23.8673L1.2872 21.7919C0.872136 20.8432 1.73192 19.8056 2.73994 20.0724L4.93384 20.606C5.3489 20.695 5.76397 20.606 6.06044 20.3096L7.75035 18.7975C8.52119 18.1453 9.76638 18.6493 9.82568 19.687Z" fill="url(#paint10_linear_1_1891)"/>
<path d="M8.58026 18.5299C9.20286 18.5299 9.79582 19.0043 9.85511 19.6862L10.033 21.9394C10.0626 22.3544 10.2998 22.7399 10.6556 22.9474L12.6123 24.1037C13.5018 24.6373 13.4128 25.9714 12.4641 26.3569L10.3591 27.2166C9.97369 27.3649 9.70686 27.7207 9.61792 28.1061L9.14357 30.3C8.99533 30.9226 8.46167 31.2783 7.89837 31.2783C7.5426 31.2783 7.18683 31.1301 6.94965 30.8336L5.49693 29.1141C5.25975 28.8176 4.90398 28.6694 4.54821 28.6694C4.51856 28.6694 4.45926 28.6694 4.42961 28.6694L2.17641 28.8769C2.14676 28.8769 2.08746 28.8769 2.05781 28.8769C1.07944 28.8769 0.456851 27.8096 0.990506 26.9498L2.17641 25.0227C2.38394 24.667 2.41358 24.2222 2.26534 23.8665L1.34628 21.7911C0.960862 20.9314 1.6131 20.0123 2.50252 20.0123C2.59146 20.0123 2.71005 20.0123 2.799 20.0419L4.99292 20.5756C5.08186 20.6052 5.20045 20.6052 5.28939 20.6052C5.58587 20.6052 5.88234 20.4867 6.11952 20.2791L7.80943 18.7671C7.98732 18.6189 8.28378 18.5299 8.58026 18.5299ZM8.58026 17.7887C8.1059 17.7887 7.63154 17.9666 7.24612 18.2927L5.55623 19.8048C5.46729 19.8937 5.34869 19.9234 5.20045 19.9234C5.17081 19.9234 5.1115 19.9234 5.08186 19.8937L2.88795 19.3601C2.73972 19.3304 2.56182 19.3008 2.41358 19.3008C1.73169 19.3008 1.1091 19.6269 0.75333 20.2198C0.39756 20.7831 0.338265 21.4947 0.605092 22.1173L1.52416 24.1926C1.58345 24.3408 1.58346 24.5187 1.49452 24.6669L0.308617 26.594C-0.0768 27.2166 -0.106451 27.9875 0.249319 28.6101C0.605089 29.2327 1.25734 29.6477 1.99853 29.6477C2.05782 29.6477 2.14675 29.6477 2.20605 29.6477L4.45927 29.4402C4.6668 29.4402 4.81504 29.4995 4.90398 29.6181L6.3567 31.3376C6.74211 31.7823 7.30543 32.0492 7.86873 32.0492C8.81745 32.0492 9.61792 31.3969 9.82546 30.4779L10.2998 28.2839C10.3295 28.1061 10.4481 27.9875 10.6259 27.8985L12.7309 27.0387C13.4424 26.7423 13.9168 26.09 13.9761 25.3192C14.0354 24.5484 13.65 23.8368 12.9977 23.4514L11.041 22.2951C10.8928 22.2062 10.8038 22.058 10.7742 21.8801L10.5963 19.6269C10.4777 18.5892 9.64757 17.7887 8.58026 17.7887Z" fill="#AD5E00"/>
<path opacity="0.5" d="M6.80154 22.5623C6.62365 23.007 6.00107 23.1849 5.40812 22.9477C4.81517 22.7105 4.48905 22.1472 4.66693 21.7025C4.84482 21.2578 5.4674 21.0799 6.06035 21.3171C6.6533 21.5543 6.97942 22.0879 6.80154 22.5623Z" fill="url(#paint11_linear_1_1891)"/>
<path opacity="0.5" d="M7.95785 21.3466C7.83926 21.6134 7.48349 21.7023 7.15736 21.5838C6.83124 21.4652 6.65337 21.139 6.74231 20.8722C6.8609 20.6054 7.21665 20.5164 7.54278 20.635C7.8689 20.7536 8.04679 21.0797 7.95785 21.3466Z" fill="url(#paint12_linear_1_1891)"/>
<path d="M25.1532 56.4199L26.9024 57.8429C27.2285 58.1098 27.6436 58.1987 28.0587 58.0801L30.2229 57.4575C31.2309 57.161 32.1204 58.1691 31.735 59.1178L30.9048 61.2227C30.7566 61.6082 30.8159 62.0529 31.0234 62.379L32.2982 64.2468C32.8912 65.1066 32.2093 66.2628 31.1716 66.2035L28.9184 66.0849C28.5034 66.0553 28.118 66.2332 27.8511 66.5593L26.4577 68.3381C25.8055 69.1683 24.501 68.9014 24.2341 67.8934L23.6708 65.6995C23.5522 65.2845 23.2558 64.988 22.8703 64.8397L20.7357 64.0689C19.7574 63.7131 19.6091 62.379 20.4985 61.8157L22.396 60.6001C22.7518 60.363 22.9593 60.0072 22.9889 59.5921L23.0779 57.3389C23.1372 56.3013 24.3527 55.7676 25.1532 56.4199Z" fill="url(#paint13_linear_1_1891)"/>
<path d="M24.3527 56.1229C24.6196 56.1229 24.916 56.2119 25.1532 56.4194L26.9024 57.8425C27.1396 58.0203 27.4064 58.1389 27.7029 58.1389C27.8215 58.1389 27.9401 58.1093 28.0587 58.0796L30.2229 57.457C30.3415 57.4274 30.4601 57.3977 30.5787 57.3977C31.4385 57.3977 32.0907 58.2575 31.735 59.1173L30.9048 61.2223C30.7566 61.6077 30.8159 62.0524 31.0234 62.3785L32.2983 64.2463C32.8616 65.0764 32.2686 66.2031 31.2606 66.2031C31.231 66.2031 31.2013 66.2031 31.1717 66.2031L28.9185 66.0845C28.8888 66.0845 28.8592 66.0845 28.8592 66.0845C28.4737 66.0845 28.118 66.2623 27.8511 66.5588L26.4577 68.3377C26.1909 68.6638 25.8351 68.812 25.4793 68.812C24.9457 68.812 24.412 68.4859 24.2638 67.8633L23.7005 65.6694C23.5819 65.2543 23.2854 64.9579 22.9 64.8096L20.7654 64.0388C19.787 63.683 19.6388 62.3489 20.5282 61.7856L22.4257 60.57C22.7814 60.3329 22.989 59.9771 23.0186 59.562L23.1075 57.3088C23.1075 56.6269 23.7301 56.1229 24.3527 56.1229ZM24.3527 55.4114C23.2558 55.4114 22.396 56.2711 22.3664 57.3384L22.2774 59.5917C22.2774 59.7695 22.1885 59.9178 22.0402 60.0067L20.1428 61.2223C19.4905 61.6373 19.1644 62.3785 19.2237 63.1197C19.3127 63.8905 19.8167 64.5131 20.5282 64.78L22.6628 65.5508C22.8111 65.6101 22.9593 65.7583 22.989 65.9066L23.5523 68.1005C23.7894 68.9899 24.5899 69.5829 25.4793 69.5829C26.1019 69.5829 26.6653 69.316 27.0507 68.812L28.4441 67.0332C28.533 66.9146 28.6813 66.8256 28.8592 66.8256L31.142 66.9442C31.1717 66.9442 31.231 66.9442 31.2606 66.9442C32.0018 66.9442 32.6837 66.5292 33.0098 65.8769C33.3656 65.2247 33.3063 64.4242 32.8912 63.8313L31.6164 61.9635C31.5274 61.8152 31.4978 61.6373 31.5571 61.4891L32.3872 59.3841C32.6244 58.7615 32.5651 58.0796 32.1797 57.546C31.7943 57.0123 31.2013 56.6566 30.5491 56.6566C30.3712 56.6566 30.1636 56.6862 29.9858 56.7455L27.8215 57.3681C27.7622 57.3681 27.7326 57.3977 27.6733 57.3977C27.5547 57.3977 27.4361 57.3681 27.3471 57.2792L25.5979 55.8561C25.2422 55.5596 24.8271 55.4114 24.3527 55.4114Z" fill="#AD5E00"/>
<path opacity="0.5" d="M25.1235 60.5996C25.331 61.0443 25.0345 61.6076 24.4416 61.8745C23.8783 62.1413 23.2261 61.993 23.0185 61.5483C22.811 61.1036 23.1075 60.5403 23.7004 60.2735C24.2934 60.0067 24.916 60.1549 25.1235 60.5996Z" fill="url(#paint14_linear_1_1891)"/>
<path opacity="0.5" d="M25.0346 58.9398C25.1532 59.2067 24.9753 59.5328 24.6492 59.681C24.3231 59.8293 23.9673 59.7403 23.8487 59.5031C23.7301 59.2363 23.908 58.9102 24.2341 58.7619C24.5602 58.5841 24.916 58.673 25.0346 58.9398Z" fill="url(#paint15_linear_1_1891)"/>
<path d="M9.38092 46.7842L10.6558 47.4068C10.8929 47.5254 11.1598 47.5254 11.3969 47.3772L12.6421 46.6656C13.2054 46.3395 13.917 46.8139 13.828 47.4661L13.6205 48.8892C13.5909 49.156 13.6798 49.4228 13.8873 49.6007L14.9546 50.5791C15.429 51.0238 15.2215 51.8243 14.5692 51.9429L13.1462 52.18C12.8793 52.2393 12.6718 52.3876 12.5532 52.6247L11.9603 53.9292C11.6934 54.5222 10.8337 54.5518 10.5372 53.9885L9.85529 52.7137C9.7367 52.4765 9.49951 52.3283 9.23268 52.2986L7.8096 52.1504C7.15736 52.0911 6.86089 51.2906 7.33525 50.8163L8.31361 49.7786C8.4915 49.6007 8.58045 49.3339 8.52115 49.067L8.22468 47.6736C8.10609 47.0214 8.78797 46.4877 9.38092 46.7842Z" fill="url(#paint16_linear_1_1891)"/>
<path d="M13.0571 46.5767C13.5018 46.5767 13.9168 46.9918 13.8576 47.4958L13.65 48.9189C13.6204 49.1857 13.7093 49.4525 13.9168 49.6304L14.9842 50.6088C15.4585 51.0535 15.251 51.854 14.5987 51.9726L13.1756 52.2097C12.9088 52.269 12.7013 52.4173 12.5827 52.6544L11.9897 53.9589C11.8415 54.2554 11.545 54.4333 11.2486 54.4333C10.9817 54.4333 10.6853 54.2851 10.537 54.0182L9.85514 52.7434C9.73655 52.5062 9.49936 52.358 9.23253 52.3283L7.80946 52.1801C7.15721 52.1208 6.86075 51.3203 7.33511 50.8459L8.31347 49.8083C8.49135 49.6304 8.5803 49.3636 8.52101 49.0967L8.22453 47.7033C8.10594 47.1697 8.521 46.7546 8.99536 46.7546C9.11395 46.7546 9.23254 46.7842 9.35113 46.8435L10.626 47.4661C10.7446 47.5254 10.8632 47.5551 10.9817 47.5551C11.13 47.5551 11.2486 47.5254 11.3672 47.4365L12.6124 46.725C12.7902 46.6064 12.9088 46.5767 13.0571 46.5767ZM13.0571 45.8355C12.7902 45.8355 12.5234 45.8948 12.2862 46.0431L11.041 46.7546L9.7069 46.132C9.49937 46.0431 9.26218 45.9838 9.025 45.9838C8.55064 45.9838 8.13557 46.1913 7.8391 46.5471C7.54262 46.9028 7.42403 47.3772 7.54262 47.8219L7.8391 49.2153L6.83109 50.3123C6.41603 50.7274 6.29743 51.3499 6.50496 51.8836C6.71249 52.4469 7.18687 52.8323 7.77982 52.8916L9.20289 53.0399L9.91442 54.3444C10.1813 54.8484 10.6853 55.1448 11.2782 55.1448C11.9008 55.1448 12.4345 54.7891 12.6717 54.2554L13.2646 52.9509L14.7173 52.6544C15.3103 52.5655 15.755 52.1504 15.9329 51.5575C16.1108 50.9942 15.9329 50.4012 15.4882 49.9862L14.4208 49.0078L14.5987 47.5254C14.658 47.0807 14.5394 46.636 14.243 46.3099C13.9168 46.0134 13.5018 45.8355 13.0571 45.8355Z" fill="#AD5E00"/>
<path opacity="0.5" d="M9.97377 49.3635C10.1517 49.6007 10.0627 50.0158 9.73659 50.2529C9.41047 50.4901 8.99541 50.4901 8.81753 50.2529C8.63964 50.0158 8.72858 49.6007 9.0547 49.3635C9.38083 49.1263 9.79588 49.1263 9.97377 49.3635Z" fill="url(#paint17_linear_1_1891)"/>
<path opacity="0.5" d="M9.6773 48.3257C9.79589 48.4739 9.73661 48.6814 9.55872 48.8297C9.38084 48.9779 9.14364 48.9779 9.02505 48.8297C8.90646 48.6814 8.96576 48.4739 9.14365 48.3257C9.35118 48.2071 9.58836 48.2071 9.6773 48.3257Z" fill="url(#paint18_linear_1_1891)"/>
<path d="M50.2645 61.044L50.8278 62.3485C50.9168 62.5857 51.154 62.7636 51.3911 62.8229L52.7846 63.1194C53.4368 63.2379 53.6443 64.0681 53.1403 64.5128L52.073 65.4615C51.8655 65.6394 51.7766 65.9062 51.8062 66.1434L51.9841 67.5665C52.073 68.2187 51.3615 68.6931 50.7685 68.3373L49.553 67.5961C49.3158 67.4479 49.049 67.4479 48.8118 67.5665L47.5073 68.1594C46.9144 68.4263 46.2621 67.8926 46.4104 67.27L46.7365 65.8766C46.7958 65.6097 46.7365 65.3429 46.5586 65.165L45.5802 64.0977C45.1355 63.6234 45.432 62.8229 46.0842 62.7636L47.5073 62.645C47.7741 62.6154 48.0113 62.4671 48.1299 62.2299L48.8415 60.9847C49.1379 60.3918 49.9977 60.4511 50.2645 61.044Z" fill="url(#paint19_linear_1_1891)"/>
<path d="M49.5235 60.5701C49.82 60.5701 50.1164 60.748 50.2647 61.0445L50.828 62.349C50.9169 62.5862 51.1541 62.764 51.3913 62.8233L52.7847 63.1198C53.437 63.2384 53.6445 64.0685 53.1405 64.5132L52.0732 65.462C51.8656 65.6398 51.7767 65.9067 51.8064 66.1438L51.9842 67.5669C52.0435 68.0709 51.6285 68.4563 51.1838 68.4563C51.0355 68.4563 50.9169 68.4267 50.7687 68.3378L49.5531 67.5966C49.4345 67.5076 49.2863 67.478 49.1381 67.478C49.0195 67.478 48.9009 67.5076 48.812 67.5373L47.5075 68.1302C47.3889 68.1895 47.2703 68.2192 47.1813 68.2192C46.707 68.2192 46.2919 67.7745 46.4105 67.2408L46.7366 65.8474C46.7959 65.5805 46.7366 65.3137 46.5587 65.1358L45.5804 64.0685C45.1357 63.5942 45.4321 62.7937 46.0844 62.7344L47.5075 62.6158C47.7743 62.5861 48.0115 62.4379 48.1301 62.2007L48.8416 60.9555C48.9898 60.6887 49.2567 60.5701 49.5235 60.5701ZM49.5235 59.8289C48.9602 59.8289 48.4562 60.1254 48.1894 60.5998L47.4778 61.845L45.9954 61.9932C45.4025 62.0525 44.9281 62.4083 44.691 62.9716C44.4834 63.5349 44.602 64.1278 44.9874 64.5725L45.9658 65.6398L45.6693 67.0926C45.5507 67.5373 45.6693 68.0116 45.9658 68.397C46.2623 68.7528 46.707 68.99 47.1517 68.99C47.3592 68.99 47.5964 68.9307 47.8039 68.8418L49.1084 68.2488L50.3833 68.99C50.6204 69.1382 50.8873 69.1975 51.1541 69.1975C51.5988 69.1975 52.0139 69.0196 52.3104 68.6935C52.6068 68.3674 52.7254 67.9523 52.6958 67.5076L52.5179 66.0845L53.6149 65.0765C54.0596 64.6911 54.2374 64.0982 54.0892 63.5349C53.941 62.9716 53.4963 62.5269 52.9033 62.4379L51.5099 62.1414L50.8873 60.7776C50.6797 60.1847 50.1461 59.8289 49.5235 59.8289Z" fill="#AD5E00"/>
<path opacity="0.5" d="M49.0194 63.3866C48.9897 63.6831 48.6636 63.9203 48.2485 63.9203C47.8335 63.8906 47.537 63.6238 47.5666 63.3273C47.5963 63.0308 47.9224 62.7937 48.3375 62.7937C48.7229 62.8233 49.049 63.0901 49.0194 63.3866Z" fill="url(#paint20_linear_1_1891)"/>
<path opacity="0.5" d="M49.4641 62.4083C49.4641 62.5862 49.2565 62.7048 49.049 62.7048C48.8118 62.7048 48.634 62.5269 48.6636 62.349C48.6636 62.1711 48.8711 62.0526 49.0787 62.0526C49.2862 62.0526 49.4641 62.2601 49.4641 62.4083Z" fill="url(#paint21_linear_1_1891)"/>
<defs>
<linearGradient id="paint0_linear_1_1891" x1="13.9649" y1="18.4409" x2="73.2739" y2="41.0348" gradientUnits="userSpaceOnUse">
<stop stop-color="#BE6D00"/>
<stop offset="0.0301085" stop-color="#C67D0F"/>
<stop offset="0.1206" stop-color="#DAA837"/>
<stop offset="0.2084" stop-color="#EAC956"/>
<stop offset="0.2917" stop-color="#F6E16D"/>
<stop offset="0.3686" stop-color="#FDF07A"/>
<stop offset="0.433" stop-color="#FFF57F"/>
<stop offset="0.5667" stop-color="#E8C653"/>
<stop offset="0.6967" stop-color="#D69F2F"/>
<stop offset="0.8161" stop-color="#C98415"/>
<stop offset="0.9209" stop-color="#C17306"/>
<stop offset="1" stop-color="#BE6D00"/>
</linearGradient>
<linearGradient id="paint1_linear_1_1891" x1="16.2185" y1="31.955" x2="62.5974" y2="49.6232" gradientUnits="userSpaceOnUse">
<stop stop-color="#BE6D00"/>
<stop offset="0.00510054" stop-color="#C07104"/>
<stop offset="0.067105" stop-color="#D6A030"/>
<stop offset="0.1262" stop-color="#E8C552"/>
<stop offset="0.181" stop-color="#F5DF6B"/>
<stop offset="0.2299" stop-color="#FCEF7A"/>
<stop offset="0.2679" stop-color="#FFF57F"/>
<stop offset="0.3167" stop-color="#FAEA75"/>
<stop offset="0.6429" stop-color="#DAA736"/>
<stop offset="0.8792" stop-color="#C67D0F"/>
<stop offset="1" stop-color="#BE6D00"/>
</linearGradient>
<linearGradient id="paint2_linear_1_1891" x1="12.9965" y1="40.4113" x2="59.3754" y2="58.0794" gradientUnits="userSpaceOnUse">
<stop stop-color="#BE6D00"/>
<stop offset="0.00510054" stop-color="#C07104"/>
<stop offset="0.067105" stop-color="#D6A030"/>
<stop offset="0.1262" stop-color="#E8C552"/>
<stop offset="0.181" stop-color="#F5DF6B"/>
<stop offset="0.2299" stop-color="#FCEF7A"/>
<stop offset="0.2679" stop-color="#FFF57F"/>
<stop offset="0.3167" stop-color="#FAEA75"/>
<stop offset="0.6429" stop-color="#DAA736"/>
<stop offset="0.8792" stop-color="#C67D0F"/>
<stop offset="1" stop-color="#BE6D00"/>
</linearGradient>
<linearGradient id="paint3_linear_1_1891" x1="51.6651" y1="8.61875" x2="53.1087" y2="4.82918" gradientUnits="userSpaceOnUse">
<stop stop-color="#BE6D00"/>
<stop offset="0.1339" stop-color="#C27407"/>
<stop offset="0.3344" stop-color="#CB891A"/>
<stop offset="0.5767" stop-color="#DBAA39"/>
<stop offset="0.8493" stop-color="#F1D864"/>
<stop offset="1" stop-color="#FFF57F"/>
</linearGradient>
<linearGradient id="paint4_linear_1_1891" x1="19.2144" y1="4.66091" x2="20.658" y2="0.871329" gradientUnits="userSpaceOnUse">
<stop stop-color="#BE6D00"/>
<stop offset="0.1339" stop-color="#C27407"/>
<stop offset="0.3344" stop-color="#CB891A"/>
<stop offset="0.5767" stop-color="#DBAA39"/>
<stop offset="0.8493" stop-color="#F1D864"/>
<stop offset="1" stop-color="#FFF57F"/>
</linearGradient>
<linearGradient id="paint5_linear_1_1891" x1="78.5223" y1="27.2577" x2="79.966" y2="23.4681" gradientUnits="userSpaceOnUse">
<stop stop-color="#BE6D00"/>
<stop offset="0.1339" stop-color="#C27407"/>
<stop offset="0.3344" stop-color="#CB891A"/>
<stop offset="0.5767" stop-color="#DBAA39"/>
<stop offset="0.8493" stop-color="#F1D864"/>
<stop offset="1" stop-color="#FFF57F"/>
</linearGradient>
<linearGradient id="paint6_linear_1_1891" x1="30.3741" y1="35.6225" x2="40.703" y2="8.50912" gradientUnits="userSpaceOnUse">
<stop stop-color="white"/>
<stop offset="0.1467" stop-color="white"/>
<stop offset="1" stop-color="white"/>
</linearGradient>
<linearGradient id="paint7_linear_1_1891" x1="22.0227" y1="26.9368" x2="27.1216" y2="13.5523" gradientUnits="userSpaceOnUse">
<stop stop-color="white"/>
<stop offset="0.1467" stop-color="white"/>
<stop offset="1" stop-color="white"/>
</linearGradient>
<linearGradient id="paint8_linear_1_1891" x1="26.8624" y1="38.2229" x2="27.7091" y2="37.0513" gradientUnits="userSpaceOnUse">
<stop stop-color="white"/>
<stop offset="1" stop-color="white"/>
</linearGradient>
<linearGradient id="paint9_linear_1_1891" x1="23.631" y1="46.7039" x2="24.4777" y2="45.5324" gradientUnits="userSpaceOnUse">
<stop stop-color="white"/>
<stop offset="1" stop-color="white"/>
</linearGradient>
<linearGradient id="paint10_linear_1_1891" x1="4.43059" y1="30.0004" x2="9.05248" y2="18.6176" gradientUnits="userSpaceOnUse">
<stop stop-color="#BE6D00"/>
<stop offset="0.1746" stop-color="#CE8F1F"/>
<stop offset="0.4354" stop-color="#E3BB48"/>
<stop offset="0.6693" stop-color="#F2DB66"/>
<stop offset="0.8654" stop-color="#FCEE78"/>
<stop offset="1" stop-color="#FFF57F"/>
</linearGradient>
<linearGradient id="paint11_linear_1_1891" x1="5.39315" y1="22.9496" x2="6.06239" y2="21.3015" gradientUnits="userSpaceOnUse">
<stop stop-color="white"/>
<stop offset="0.8605" stop-color="white"/>
<stop offset="1" stop-color="white"/>
</linearGradient>
<linearGradient id="paint12_linear_1_1891" x1="7.1554" y1="21.5593" x2="7.53486" y2="20.6248" gradientUnits="userSpaceOnUse">
<stop stop-color="white"/>
<stop offset="0.8605" stop-color="white"/>
<stop offset="1" stop-color="white"/>
</linearGradient>
<linearGradient id="paint13_linear_1_1891" x1="28.9032" y1="67.4417" x2="23.8332" y2="56.2513" gradientUnits="userSpaceOnUse">
<stop stop-color="#BE6D00"/>
<stop offset="0.1746" stop-color="#CE8F1F"/>
<stop offset="0.4354" stop-color="#E3BB48"/>
<stop offset="0.6693" stop-color="#F2DB66"/>
<stop offset="0.8654" stop-color="#FCEE78"/>
<stop offset="1" stop-color="#FFF57F"/>
</linearGradient>
<linearGradient id="paint14_linear_1_1891" x1="24.4543" y1="61.8877" x2="23.7202" y2="60.2674" gradientUnits="userSpaceOnUse">
<stop stop-color="white"/>
<stop offset="0.8605" stop-color="white"/>
<stop offset="1" stop-color="white"/>
</linearGradient>
<linearGradient id="paint15_linear_1_1891" x1="24.66" y1="59.6531" x2="24.2438" y2="58.7344" gradientUnits="userSpaceOnUse">
<stop stop-color="white"/>
<stop offset="0.8605" stop-color="white"/>
<stop offset="1" stop-color="white"/>
</linearGradient>
<linearGradient id="paint16_linear_1_1891" x1="13.3196" y1="53.015" x2="8.54288" y2="46.8692" gradientUnits="userSpaceOnUse">
<stop stop-color="#BE6D00"/>
<stop offset="0.1746" stop-color="#CE8F1F"/>
<stop offset="0.4354" stop-color="#E3BB48"/>
<stop offset="0.6693" stop-color="#F2DB66"/>
<stop offset="0.8654" stop-color="#FCEE78"/>
<stop offset="1" stop-color="#FFF57F"/>
</linearGradient>
<linearGradient id="paint17_linear_1_1891" x1="9.75813" y1="50.2505" x2="9.06648" y2="49.3606" gradientUnits="userSpaceOnUse">
<stop stop-color="white"/>
<stop offset="0.8605" stop-color="white"/>
<stop offset="1" stop-color="white"/>
</linearGradient>
<linearGradient id="paint18_linear_1_1891" x1="9.55473" y1="48.8428" x2="9.1626" y2="48.3383" gradientUnits="userSpaceOnUse">
<stop stop-color="white"/>
<stop offset="0.8605" stop-color="white"/>
<stop offset="1" stop-color="white"/>
</linearGradient>
<linearGradient id="paint19_linear_1_1891" x1="49.1422" y1="68.3363" x2="49.5626" y2="60.5638" gradientUnits="userSpaceOnUse">
<stop stop-color="#BE6D00"/>
<stop offset="0.1746" stop-color="#CE8F1F"/>
<stop offset="0.4354" stop-color="#E3BB48"/>
<stop offset="0.6693" stop-color="#F2DB66"/>
<stop offset="0.8654" stop-color="#FCEE78"/>
<stop offset="1" stop-color="#FFF57F"/>
</linearGradient>
<linearGradient id="paint20_linear_1_1891" x1="48.2644" y1="63.9146" x2="48.3252" y2="62.7892" gradientUnits="userSpaceOnUse">
<stop stop-color="white"/>
<stop offset="0.8605" stop-color="white"/>
<stop offset="1" stop-color="white"/>
</linearGradient>
<linearGradient id="paint21_linear_1_1891" x1="49.0333" y1="62.7183" x2="49.0678" y2="62.0802" gradientUnits="userSpaceOnUse">
<stop stop-color="white"/>
<stop offset="0.8605" stop-color="white"/>
<stop offset="1" stop-color="white"/>
</linearGradient>
</defs>
</svg>
